<svg xmlns="http://www.w3.org/2000/svg" version="1.1" xmlns:xlink="http://www.w3.org/1999/xlink" xmlns:svgjs="http://svgjs.dev/svgjs" width="100%" height="100%" viewBox="0 0 1000 600"><rect width="1000" height="600" x="0" y="0" fill="black"/><g><circle r="166.66666666666666" cx="377.6327463785807" cy="399.8549800271454" fill="blue" transform="matrix(0.5925121851230258,0,0,0.592512185123026,0,63.08103137625697)"/><path d="M389.54526612690046 474.85498234674765L389.54526612690046 474.85498234674765Q374.41002761100134 474.85498234674765 361.9795655599207 469.8770426827732Q349.54910350884006 464.8991030187988 340.6578702361921 455.37483695651247Q331.73786274583324 445.8505708942261 326.8750199527022 431.8663010867604Q322.0121771595711 417.88203127929467 322.0121771595711 399.8693709923121L322.0121771595711 399.8693709923121Q322.0121771595711 381.8279364876186 327.4792785246297 367.8436666801529Q332.97515410739913 353.8593968726872 342.29800064570964 344.3351308104008Q351.62084718402014 334.8108647481145 364.0513092351008 329.8329250841401Q376.48177128618147 324.8549854201657 390.5811379644905 324.8549854201657L390.5811379644905 324.8549854201657Q399.4723712371385 324.8549854201657 406.6371514471363 326.0922767817316Q413.77315743942336 327.3583423610083 419.067613498217 328.9984727705259Q424.33329533929975 330.6673773977543 427.6711045937566 332.30750780727186Q430.9801396305026 333.97641243450033 432.2174309920685 334.8108647481145L432.2174309920685 334.8108647481145L426.4050390144799 351.3848141495554Q424.5634890809864 350.1475227879895 421.0242603025538 348.6800376847369Q417.5138057418319 347.2413267991952 413.0538019966525 345.7738416959426Q408.5937982514731 344.3351308104008 403.3281164103903 343.41435584365416Q398.0336603515967 342.4648066591966 392.6528816396706 342.4648066591966L392.6528816396706 342.4648066591966Q381.25829142618 342.4648066591966 372.1368644118454 346.40687448558094Q363.0154373975107 350.34894231196535 356.5987868479946 357.8014646990716Q350.1821362984784 365.2539870861778 346.758004390889 375.9292218568975Q343.33387248329973 386.6044566276172 343.33387248329973 399.8693709923121L343.33387248329973 399.8693709923121Q343.33387248329973 412.7026720913444 346.35516534293737 423.26280999122076Q349.34768398486415 433.82294789109716 355.3614954864287 441.3905671490467Q361.37530698799316 448.9581864069963 370.38163713148447 453.10167375735654Q379.3879672749757 457.24516110771674 391.4155902781047 457.24516110771674L391.4155902781047 457.24516110771674Q405.2847632147271 457.24516110771674 414.40619022906174 454.33896511892243Q423.5276172433964 451.43276913012807 428.0739436417083 449.15960593097213L428.0739436417083 449.15960593097213L433.25330282965854 465.733555332413Q431.81459194411684 466.7694271700031 428.0739436417083 468.3232349263881Q424.33329533929975 469.8770426827732 418.7510971033978 471.3445277860258Q413.16889886749584 472.7832386715675 405.68760226267875 473.8191105091576Q398.2350798755726 474.85498234674765 389.54526612690046 474.85498234674765Z " fill="white" transform="matrix(0.5925121851230258,0,0,0.592512185123026,0,63.08103137625697)"/><path d="M682.3243712554834 446.3323799108546L682.3243712554834 446.3323799108546Q670.0671076256881 446.3323799108546 660.000305557111 442.3009985269106Q649.9335034885339 438.2696171429665 642.7329436755933 430.55639611357066Q635.5090810800866 422.8431750841748 631.5709108264073 411.51802275702556Q627.6327405727277 400.19287042987634 627.6327405727277 385.60532854346604L627.6327405727277 385.60532854346604Q627.6327405727277 370.99448387448956 632.0602692602963 359.66933154734033Q636.5111007304312 348.3441792201911 644.061202281864 340.63095819079524Q651.6113038332967 332.9177371613994 661.6781059018738 328.8863557774553Q671.7449079704509 324.85497439351127 683.1632714278647 324.85497439351127L683.1632714278647 324.85497439351127Q690.3638312408053 324.85497439351127 696.1662240997769 325.85699404385576Q701.9453141761821 326.88231647676633 706.233026168354 328.210575083037Q710.4974353779595 329.56213647187366 713.200558155633 330.8903950781443Q715.8803781507403 332.241956466981 716.8823978010847 332.9177371613994L716.8823978010847 332.9177371613994L712.1752357227224 346.3401399195022Q710.6838576384887 345.3381202691577 707.8176153828522 344.149678358284Q704.9746759097818 342.98453922997646 701.3627446120285 341.7960973191028Q697.7508133142751 340.63095819079524 693.4864041046694 339.88526914867845Q689.1986921124978 339.11627732399546 684.8410717726276 339.11627732399546L684.8410717726276 339.11627732399546Q675.6131698764319 339.11627732399546 668.2261878029622 342.30875853555807Q660.8392057294925 345.50123974712074 655.6426852172408 351.5366604317538Q650.4461647049893 357.57208111638676 647.6731335796173 366.21741344842866Q644.9001024542454 374.86274578047056 644.9001024542454 385.60532854346604L644.9001024542454 385.60532854346604Q644.9001024542454 395.99836956796923 647.3468946236912 404.5504907697465Q649.7703840105709 413.1026119715238 654.6406655668964 419.23124378642143Q659.5109471232219 425.35987560131906 666.804718066427 428.7154762908447Q674.0984890096322 432.07107698037044 683.8390521222832 432.07107698037044L683.8390521222832 432.07107698037044Q695.0709933191678 432.07107698037044 702.4579753926375 429.7174959411892Q709.8449574661073 427.363914902008 713.5267971115591 425.5229950792821L713.5267971115591 425.5229950792821L717.7212979734662 438.94539783738486Q716.5561588451587 439.7842980097663 713.5267971115591 441.04264826833844Q710.4974353779595 442.3009985269106 705.9766955601262 443.48944043778425Q701.4559557422931 444.6545795660918 695.3972322750939 445.49347973847324Q689.3618115904608 446.3323799108546 682.3243712554834 446.3323799108546ZM764.862827104789 432.5837381968258L764.862827104789 432.5837381968258Q770.4088893555328 432.5837381968258 774.6732985651385 432.3274075885981Q778.9610105573101 432.07107698037044 781.8039500303805 431.39529628595204L781.8039500303805 431.39529628595204L781.8039500303805 405.38939094212793Q780.1261496856176 404.5504907697465 776.3510989099012 403.96792120559275Q772.5760481341848 403.38535164143894 767.2164081439702 403.38535164143894L767.2164081439702 403.38535164143894Q763.6976879764815 403.38535164143894 759.759517722802 403.87471007532815Q755.7980446865564 404.38737129178344 752.5356551272953 405.97196050628173Q749.2732655680342 407.5798525033461 747.082804006816 410.352883628718Q744.8923424455978 413.1026119715238 744.8923424455978 417.6466545719232L744.8923424455978 417.6466545719232Q744.8923424455978 426.0356562957374 750.2752852183786 429.2980458549985Q755.6349252085932 432.5837381968258 764.862827104789 432.5837381968258ZM763.5345684985184 354.37959990482415L763.5345684985184 354.37959990482415Q772.925589872677 354.37959990482415 779.3804606435008 356.82639207426996Q785.8353314143245 359.24988146114964 789.7735016680041 363.7007129312844Q793.7349747042496 368.1515444014192 795.4127750490126 374.2801762163168Q797.0905753937753 380.38550524864826 797.0905753937753 387.772487322118L797.0905753937753 387.772487322118L797.0905753937753 442.3009985269106Q795.0632333105202 442.65054026540287 791.4513020127669 443.2331098295566Q787.8626734975797 443.81567939371035 783.3186308971802 444.3283406101657Q778.7978910793471 444.81769904405485 773.5081594368309 445.23714913024554Q768.2184277943146 445.6565992164363 763.0219072820631 445.6565992164363L763.0219072820631 445.6565992164363Q755.6349252085932 445.6565992164363 749.4363850459972 444.14191834963646Q743.214542100835 442.65054026540287 738.6938022830018 439.3648479235756Q734.1730624651685 436.1024583643145 731.6563619480243 430.7195155915337Q729.13966143088 425.35987560131906 729.13966143088 417.80977404988624L729.13966143088 417.80977404988624Q729.13966143088 410.5859114543795 732.075812034215 405.38939094212793Q735.01196263755 400.19287042987634 740.0453636718386 397.0003892183137Q745.0787647061271 393.80790800675106 751.7899660851784 392.3165299225174Q758.5011674642299 390.80184905571764 765.8648467551335 390.80184905571764L765.8648467551335 390.80184905571764Q768.2184277943146 390.80184905571764 770.7351283114589 391.0581796639453Q773.2518288286032 391.2912074896068 775.5121987375198 391.7106575757975Q777.7958714290027 392.13010766198823 779.4736717737654 392.47964940048047Q781.1514721185283 392.80588835640657 781.8039500303805 392.9690078343696L781.8039500303805 392.9690078343696L781.8039500303805 388.61138749449947Q781.8039500303805 384.7664283710846 780.9650498579991 380.9913775953682Q780.1261496856176 377.2163268196518 777.9589909069656 374.2801762163168Q775.7685293457474 371.3440256129818 771.993478570031 369.5730141379544Q768.2184277943146 367.8020026629269 762.1830071096816 367.8020026629269L762.1830071096816 367.8020026629269Q754.4697860802858 367.8020026629269 748.6673932213142 368.897233443536Q742.888303144909 369.99246422414507 740.0453636718386 371.1576033524526L740.0453636718386 371.1576033524526L738.1811410665465 358.24786181080515Q741.2105028001461 356.8963004219684 748.2479431351236 355.6379501633963Q755.3086862526671 354.37959990482415 763.5345684985184 354.37959990482415ZM822.9100584770703 443.81567939371035L822.9100584770703 359.0867619831866Q828.293001249851 357.73520059434986 837.101453059856 356.2438225101162Q845.909904869861 354.7291416433164 857.4913878052379 354.7291416433164L857.4913878052379 354.7291416433164Q865.8803895290521 354.7291416433164 871.5662684751928 356.989511552233Q877.2754502038998 359.24988146114964 881.1437121098808 363.6075018010198L881.1437121098808 363.6075018010198Q882.3088512381883 362.76860162863835 884.8255517553326 361.2772235444047Q887.3422522724768 359.7625426776049 891.0473947004948 358.34107294106974Q894.7292343459466 356.8963004219684 899.2499741637798 355.82437242392547Q903.7940167641792 354.7291416433164 908.9905372764308 354.7291416433164L908.9905372764308 354.7291416433164Q919.0573393450079 354.7291416433164 925.4423017681332 357.6652922466514Q931.8039614086923 360.60144284998637 935.4158927064456 365.961082840201Q939.027824004199 371.3440256129818 940.2861742627712 378.7077049038854Q941.5445245213433 386.0946869773552 941.5445245213433 394.8332304396617L941.5445245213433 394.8332304396617L941.5445245213433 443.81567939371035L925.9316602020223 443.81567939371035L925.9316602020223 398.18883112918735Q925.9316602020223 390.45230731722535 925.1859711599055 384.92954784904765Q924.4169793352225 379.3834855983038 922.319728904269 375.701645952852Q920.2224784733154 371.99650352483405 916.6338499581283 370.24879483237277Q913.0219186603748 368.4777833573453 907.3127369316679 368.4777833573453L907.3127369316679 368.4777833573453Q899.436396424309 368.4777833573453 894.3097842597559 370.57503378829887Q889.1831720952027 372.6722842192524 887.3422522724768 374.3500845640153L887.3422522724768 374.3500845640153Q888.6938136613136 378.7077049038854 889.3695943557319 383.92752819870316Q890.0220722675841 389.12404871095475 890.0220722675841 394.8332304396617L890.0220722675841 394.8332304396617L890.0220722675841 443.81567939371035L874.4325107308293 443.81567939371035L874.4325107308293 398.18883112918735Q874.4325107308293 390.45230731722535 873.593610558448 384.92954784904765Q872.7547103860666 379.3834855983038 870.657459955113 375.701645952852Q868.5602095241594 371.99650352483405 864.948278226406 370.24879483237277Q861.3363469286527 368.4777833573453 855.813587460475 368.4777833573453L855.813587460475 368.4777833573453Q853.4600064212938 368.4777833573453 850.7801864261864 368.64090283530834Q848.077063648513 368.8273250958375 845.6535742616333 369.06035292149903Q843.2300848747536 369.31668352972673 841.2027427914985 369.66622526821897Q839.1987034908096 369.99246422414507 838.5229227963912 370.1555837021081L838.5229227963912 370.1555837021081L838.5229227963912 443.81567939371035L822.9100584770703 443.81567939371035ZM1027.95124227663 400.3559899078394L1027.95124227663 400.3559899078394Q1027.95124227663 385.0926673270107 1020.401140725197 376.86678508115955Q1012.8510391737644 368.64090283530834 1000.267536588043 368.64090283530834L1000.267536588043 368.64090283530834Q993.2067934704993 368.64090283530834 989.26862321682 369.1535640517637Q985.3304529631404 369.66622526821897 982.976871923959 370.31870318007117L982.976871923959 370.31870318007117L982.976871923959 425.35987560131906Q985.8431141795957 427.7134566405003 991.2027541698103 429.88061541915226Q996.5623941600251 432.07107698037044 1002.9473565831503 432.07107698037044L1002.9473565831503 432.07107698037044Q1009.6585579622017 432.07107698037044 1014.4356283882626 429.64758759349075Q1019.2126988143235 427.20079542404494 1022.2420605479231 422.9363862144394Q1025.2714222815225 418.64867422226763 1026.599680887793 412.8695841458623Q1027.95124227663 407.0671912868908 1027.95124227663 400.3559899078394ZM1044.216584507803 400.3559899078394L1044.216584507803 400.3559899078394Q1044.216584507803 410.2596724984534 1041.6299756429603 418.64867422226763Q1039.0200639955515 427.0376759460819 1033.986662961263 433.07309663071493Q1028.9532619269744 439.1085173153479 1021.6594909837693 442.4641180048736Q1014.365720040564 445.81971869439934 1004.9513958838392 445.81971869439934L1004.9513958838392 445.81971869439934Q997.4012943324065 445.81971869439934 991.622204256001 443.81567939371035Q985.8431141795957 441.8116400930214 982.976871923959 439.9474174877294L982.976871923959 439.9474174877294L982.976871923959 474.854985771823L967.3873103872044 474.854985771823L967.3873103872044 359.24988146114964Q972.9100698553821 357.92162285487905 981.2291632314979 356.3137308578147Q989.5249538250474 354.7291416433164 1000.430656066006 354.7291416433164L1000.430656066006 354.7291416433164Q1010.4974581345831 354.7291416433164 1018.5602209024712 357.92162285487905Q1026.599680887793 361.0908012838755 1032.3088626165002 366.9631024905455Q1038.018044345207 372.83540369721544 1041.117314426505 381.3176165512943Q1044.216584507803 389.79982940537315 1044.216584507803 400.3559899078394ZM1086.5111348653663 432.5837381968258L1086.5111348653663 432.5837381968258Q1096.0652757174885 432.5837381968258 1100.6792266655862 430.0670376796815Q1105.2931776136838 427.55033716253723 1105.2931776136838 422.00427491179335L1105.2931776136838 422.00427491179335Q1105.2931776136838 416.2950931830864 1100.7724377958507 412.93949249356075Q1096.2283951954514 409.58389180403503 1085.835354170948 405.38939094212793L1085.835354170948 405.38939094212793Q1080.8019531366594 403.38535164143894 1076.1880021885618 401.2881012104854Q1071.574051240464 399.19085077953184 1068.218450550938 396.32460852389534Q1064.8628498614125 393.48166905082496 1062.8355077781575 389.4502876668809Q1060.8314684774687 385.4189062829368 1060.8314684774687 379.54660507626687L1060.8314684774687 379.54660507626687Q1060.8314684774687 367.98842492345614 1069.3835896792457 361.1840124141401Q1077.9357108810232 354.37959990482415 1092.7096750279625 354.37959990482415L1092.7096750279625 354.37959990482415Q1096.3915146734143 354.37959990482415 1100.0966571014324 354.79904999101484Q1103.7784967468842 355.21850007720553 1106.9709779584468 355.82437242392547Q1110.1634591700094 356.40694198807927 1112.5869485568892 357.0827226824976Q1115.033740726335 357.73520059434986 1116.3619993326056 358.24786181080515L1116.3619993326056 358.24786181080515L1113.519059859535 371.67026456890795Q1111.0023593423907 370.31870318007117 1105.6194165696102 368.897233443536Q1100.2597765793953 367.4757637070008 1092.7096750279625 367.4757637070008L1092.7096750279625 367.4757637070008Q1086.1615931268743 367.4757637070008 1081.2913115705487 370.08567535440966Q1076.4443327967892 372.6722842192524 1076.4443327967892 378.2183464699963L1076.4443327967892 378.2183464699963Q1076.4443327967892 381.06128594306665 1077.5162607948323 383.2517475042848Q1078.6114915754415 385.4189062829368 1080.871861484358 387.1899177579643Q1083.1555341758408 388.9609292329917 1086.5111348653663 390.45230731722535Q1089.8667355548923 391.9669881840252 1094.5505948506884 393.644788528788L1094.5505948506884 393.644788528788Q1100.7724377958507 395.99836956796923 1105.6194165696102 398.25873947688586Q1110.4896981259353 400.51910938580244 1113.9385099457259 403.54847111940205Q1117.3640189829498 406.5778328530016 1119.2282415882419 410.84224206260717Q1121.0691614109678 415.1299540547789 1121.0691614109678 421.32849421737495L1121.0691614109678 421.32849421737495Q1121.0691614109678 433.42263836920716 1112.097590123 439.62117853180325Q1103.102716052466 445.81971869439934 1086.5111348653663 445.81971869439934L1086.5111348653663 445.81971869439934Q1074.9296519299896 445.81971869439934 1068.3815700289015 443.908890523975Q1061.8334881278129 441.9747595709845 1059.479907088632 440.97273992064L1059.479907088632 440.97273992064L1062.3461493442683 427.55033716253723Q1065.0259693393755 428.55235681288167 1070.8982705460458 430.55639611357066Q1076.7705717527156 432.5837381968258 1086.5111348653663 432.5837381968258ZM1178.9532733052863 445.81971869439934L1178.9532733052863 445.81971869439934Q1168.3738100202538 445.81971869439934 1160.4042583826304 442.4641180048736Q1152.4347067450067 439.1085173153479 1146.9818556245275 433.07309663071493Q1141.5290045040483 427.0376759460819 1138.8491845089409 418.7418853525323Q1136.1693645138334 410.4227919764165 1136.1693645138334 400.3559899078394L1136.1693645138334 400.3559899078394Q1136.1693645138334 390.2891878392623 1139.1055151171686 381.9001861154481Q1142.0416657205037 373.51118439163383 1147.4013057107181 367.3825525767362Q1152.7842484834991 361.2772235444047 1160.5673778605933 357.82841172461445Q1168.3738100202538 354.37959990482415 1177.9512536549419 354.37959990482415L1177.9512536549419 354.37959990482415Q1183.8235548616117 354.37959990482415 1189.6958560682815 355.4049223377348Q1195.5681572749518 356.40694198807927 1200.9277972651662 358.57410076673125L1200.9277972651662 358.57410076673125L1197.4090770976777 371.833384046871Q1193.8903569301888 370.1555837021081 1189.2764059820909 369.1535640517637Q1184.662455033993 368.1515444014192 1179.4426317391753 368.1515444014192L1179.4426317391753 368.1515444014192Q1166.3697707195647 368.1515444014192 1159.4022387322857 376.37742664727034Q1152.4347067450067 384.5800061105554 1152.4347067450067 400.3559899078394L1152.4347067450067 400.3559899078394Q1152.4347067450067 407.41673302538305 1154.0425987420713 413.289034232053Q1155.6271879565693 419.161335438723 1159.0759997763598 423.3558363006301Q1162.5015088135838 427.55033716253723 1167.8844515863648 429.8107070714538Q1173.2440915765792 432.07107698037044 1180.9573126059752 432.07107698037044L1180.9573126059752 432.07107698037044Q1187.1791555511375 432.07107698037044 1192.2125565854258 430.9059378520629Q1197.2459576197145 429.7174959411892 1200.088897092785 428.3892373349186L1200.088897092785 428.3892373349186L1202.2793586540029 441.46209835452913Q1200.9277972651662 442.3009985269106 1198.411096748022 443.06999035159356Q1195.8943962308776 443.81567939371035 1192.701915019315 444.39824895786415Q1189.5094338077524 444.9808185220179 1185.9208052925653 445.4002686082086Q1182.3088739948118 445.81971869439934 1178.9532733052863 445.81971869439934ZM1248.5819876129444 432.5837381968258L1248.5819876129444 432.5837381968258Q1254.1047470811222 432.5837381968258 1258.392459073294 432.3274075885981Q1262.6801710654654 432.07107698037044 1265.523110538536 431.39529628595204L1265.523110538536 431.39529628595204L1265.523110538536 405.38939094212793Q1263.845310193773 404.5504907697465 1260.0702594180566 403.96792120559275Q1256.2952086423402 403.38535164143894 1250.9355686521258 403.38535164143894L1250.9355686521258 403.38535164143894Q1247.3935457020707 403.38535164143894 1243.4553754483914 403.87471007532815Q1239.517205194712 404.38737129178344 1236.2548156354505 405.97196050628173Q1232.9691232936234 407.5798525033461 1230.8019645149714 410.352883628718Q1228.6115029537532 413.1026119715238 1228.6115029537532 417.6466545719232L1228.6115029537532 417.6466545719232Q1228.6115029537532 426.0356562957374 1233.971142943968 429.2980458549985Q1239.3540857167486 432.5837381968258 1248.5819876129444 432.5837381968258ZM1247.2304262241078 354.37959990482415L1247.2304262241078 354.37959990482415Q1256.6214475982665 354.37959990482415 1263.0996211516563 356.82639207426996Q1269.5544919224799 359.24988146114964 1273.4926621761597 363.7007129312844Q1277.430832429839 368.1515444014192 1279.108632774602 374.2801762163168Q1280.7864331193646 380.38550524864826 1280.7864331193646 387.772487322118L1280.7864331193646 387.772487322118L1280.7864331193646 442.3009985269106Q1278.7823938186757 442.65054026540287 1275.1704625209222 443.2331098295566Q1271.5585312231688 443.81567939371035 1267.0377914053356 444.3283406101657Q1262.4937488049363 444.81769904405485 1257.2273199449864 445.23714913024554Q1251.93758830247 445.6565992164363 1246.7410677902185 445.6565992164363L1246.7410677902185 445.6565992164363Q1239.3540857167486 445.6565992164363 1233.1322427715863 444.14191834963646Q1226.9337026089904 442.65054026540287 1222.4129627911573 439.3648479235756Q1217.8689201907578 436.1024583643145 1215.3522196736135 430.7195155915337Q1212.8355191564692 425.35987560131906 1212.8355191564692 417.80977404988624L1212.8355191564692 417.80977404988624Q1212.8355191564692 410.5859114543795 1215.7716697598044 405.38939094212793Q1218.707820363139 400.19287042987634 1223.7412213974278 397.0003892183137Q1228.7746224317161 393.80790800675106 1235.4858238107677 392.3165299225174Q1242.1970251898192 390.80184905571764 1249.5840072632886 390.80184905571764L1249.5840072632886 390.80184905571764Q1251.93758830247 390.80184905571764 1254.4542888196142 391.0581796639453Q1256.9709893367585 391.2912074896068 1259.2313592456753 391.7106575757975Q1261.4917291545917 392.13010766198823 1263.1695294993547 392.47964940048047Q1264.8473298441177 392.80588835640657 1265.523110538536 392.9690078343696L1265.523110538536 392.9690078343696L1265.523110538536 388.61138749449947Q1265.523110538536 384.7664283710846 1264.6842103661547 380.9913775953682Q1263.845310193773 377.2163268196518 1261.654848632555 374.2801762163168Q1259.4876898539028 371.3440256129818 1255.7126390781864 369.5730141379544Q1251.93758830247 367.8020026629269 1245.9021676178372 367.8020026629269L1245.9021676178372 367.8020026629269Q1238.1656438058753 367.8020026629269 1232.3865537294696 368.897233443536Q1226.6074636530643 369.99246422414507 1223.7412213974278 371.1576033524526L1223.7412213974278 371.1576033524526L1221.9003015747019 358.24786181080515Q1224.9296633083013 356.8963004219684 1231.967103643279 355.6379501633963Q1239.0045439782566 354.37959990482415 1247.2304262241078 354.37959990482415ZM1367.193150874651 400.3559899078394L1367.193150874651 400.3559899078394Q1367.193150874651 385.0926673270107 1359.6430493232187 376.86678508115955Q1352.0929477717855 368.64090283530834 1339.509445186064 368.64090283530834L1339.509445186064 368.64090283530834Q1332.4720048510867 368.64090283530834 1328.5338345974073 369.1535640517637Q1324.5723615611619 369.66622526821897 1322.2420833045467 370.31870318007117L1322.2420833045467 370.31870318007117L1322.2420833045467 425.35987560131906Q1325.0850227776173 427.7134566405003 1330.4446627678317 429.88061541915226Q1335.8276055406127 432.07107698037044 1342.1892651811718 432.07107698037044L1342.1892651811718 432.07107698037044Q1348.9004665602229 432.07107698037044 1353.70083976885 429.64758759349075Q1358.4779101949111 427.20079542404494 1361.4839691459447 422.9363862144394Q1364.513330879544 418.64867422226763 1365.864892268381 412.8695841458623Q1367.193150874651 407.0671912868908 1367.193150874651 400.3559899078394ZM1383.4817958883905 400.3559899078394L1383.4817958883905 400.3559899078394Q1383.4817958883905 410.2596724984534 1380.8718842409817 418.64867422226763Q1378.2619725935729 427.0376759460819 1373.2285715592843 433.07309663071493Q1368.1951705249958 439.1085173153479 1360.9013995817904 442.4641180048736Q1353.6076286385855 445.81971869439934 1344.2166072644268 445.81971869439934L1344.2166072644268 445.81971869439934Q1336.666505712994 445.81971869439934 1330.8641128540226 443.81567939371035Q1325.0850227776173 441.8116400930214 1322.2420833045467 439.9474174877294L1322.2420833045467 439.9474174877294L1322.2420833045467 474.854985771823L1306.6292189852256 474.854985771823L1306.6292189852256 359.24988146114964Q1312.1752812359696 357.92162285487905 1320.4710718295191 356.3137308578147Q1328.7668624230687 354.7291416433164 1339.6725646640275 354.7291416433164L1339.6725646640275 354.7291416433164Q1349.7393667326046 354.7291416433164 1357.8021295004924 357.92162285487905Q1365.864892268381 361.0908012838755 1371.5507712145213 366.9631024905455Q1377.2599529432287 372.83540369721544 1380.3592230245263 381.3176165512943Q1383.4817958883905 389.79982940537315 1383.4817958883905 400.3559899078394ZM1400.5860382919454 400.3559899078394L1400.5860382919454 400.3559899078394Q1400.5860382919454 388.7745069724625 1403.941638981471 380.15247742298675Q1407.2972396709965 371.5071450909449 1412.8433019217405 365.79796336223797Q1418.3660613899183 360.088781633531 1425.5899239854248 357.24584216046065Q1432.7904837983656 354.37959990482415 1440.3405853497984 354.37959990482415L1440.3405853497984 354.37959990482415Q1457.9574889698083 354.37959990482415 1467.3718131265332 365.3785132760473Q1476.7628345006915 376.37742664727034 1476.7628345006915 398.8413090410396L1476.7628345006915 398.8413090410396Q1476.7628345006915 399.86663147395024 1476.7628345006915 401.4512206884485Q1476.7628345006915 403.0358099029467 1476.5997150227286 404.38737129178344L1476.5997150227286 404.38737129178344L1416.8513805231182 404.38737129178344Q1417.876702956029 417.9728935278493 1424.7510238130435 425.03363664539296Q1431.625344670058 432.07107698037044 1446.2128865564682 432.07107698037044L1446.2128865564682 432.07107698037044Q1454.4387688023194 432.07107698037044 1460.0547394007617 430.64960724383525Q1465.6940127817702 429.22813750730006 1468.5369522548408 427.87657611846333L1468.5369522548408 427.87657611846333L1470.7274138160587 440.97273992064Q1467.861171560422 442.4641180048736 1460.73052009518 444.14191834963646Q1453.599868629938 445.81971869439934 1444.5350862117052 445.81971869439934L1444.5350862117052 445.81971869439934Q1433.1400255368576 445.81971869439934 1424.820932160742 442.39420965717517Q1416.5251415671923 438.94539783738486 1411.1655015769775 432.9099771527519Q1405.782558804197 426.87455646811884 1403.1959499393543 418.55546309200304Q1400.5860382919454 410.2596724984534 1400.5860382919454 400.3559899078394ZM1417.2009222616107 391.80386870606213L1460.4741894869521 391.80386870606213Q1460.6606117474817 381.2244054210297 1455.2077606270022 374.44329569427987Q1449.7549095065233 367.63888318496384 1440.177465871835 367.63888318496384L1440.177465871835 367.63888318496384Q1434.8178258816206 367.63888318496384 1430.6932333674117 369.7361336159174Q1426.5919436357694 371.833384046871 1423.7490041626988 375.18898473639666Q1420.882761907062 378.5445854259224 1419.298172692564 382.90220576579253Q1417.6902806955 387.2831288882289 1417.2009222616107 391.80386870606213L1417.2009222616107 391.80386870606213Z " fill="blue" transform="matrix(0.5925121851230258,0,0,0.592512185123026,0,63.08103137625697)"/></g></svg>